<mxfile host="app.diagrams.net" modified="2024-06-29T06:35:23.041Z" agent="Mozilla/5.0 (Macintosh; Intel Mac OS X 10.15; rv:127.0) Gecko/20100101 Firefox/127.0" etag="kKETlJJ3A_VtXdDaDKWG" version="24.5.5" type="dropbox">
  <diagram name="Page-1" id="ALxjp6_uH2wn0X92kFWS">
    <mxGraphModel dx="1370" dy="899" grid="1" gridSize="10" guides="1" tooltips="1" connect="1" arrows="1" fold="1" page="1" pageScale="1" pageWidth="1169" pageHeight="827" background="none" math="0" shadow="0">
      <root>
        <mxCell id="0" />
        <mxCell id="1" parent="0" />
        <mxCell id="T-EGLuceTleQ6SiZiBLL-18" value="" style="rounded=0;whiteSpace=wrap;html=1;fillColor=none;dashed=1;dashPattern=12 12;" vertex="1" parent="1">
          <mxGeometry x="530" y="190" width="580" height="510" as="geometry" />
        </mxCell>
        <mxCell id="T-EGLuceTleQ6SiZiBLL-19" value="" style="rounded=0;whiteSpace=wrap;html=1;glass=0;shadow=0;" vertex="1" parent="1">
          <mxGeometry x="575" y="250" width="490" height="370" as="geometry" />
        </mxCell>
        <mxCell id="T-EGLuceTleQ6SiZiBLL-32" value="" style="rounded=0;whiteSpace=wrap;html=1;" vertex="1" parent="1">
          <mxGeometry x="100" y="274" width="240" height="280" as="geometry" />
        </mxCell>
        <mxCell id="T-EGLuceTleQ6SiZiBLL-33" value="&lt;font style=&quot;font-size: 24px;&quot;&gt;App Instance&lt;br&gt;&lt;/font&gt;" style="text;html=1;align=center;verticalAlign=middle;whiteSpace=wrap;rounded=0;" vertex="1" parent="1">
          <mxGeometry x="600" y="570" width="163" height="30" as="geometry" />
        </mxCell>
        <mxCell id="T-EGLuceTleQ6SiZiBLL-34" value="&lt;font style=&quot;font-size: 24px;&quot;&gt;Host&lt;br&gt;&lt;/font&gt;" style="text;html=1;align=center;verticalAlign=middle;whiteSpace=wrap;rounded=0;" vertex="1" parent="1">
          <mxGeometry x="550" y="650" width="95" height="30" as="geometry" />
        </mxCell>
        <mxCell id="T-EGLuceTleQ6SiZiBLL-38" value="&lt;font style=&quot;font-size: 24px;&quot;&gt;User Session&lt;br&gt;&lt;/font&gt;" style="rounded=1;whiteSpace=wrap;html=1;" vertex="1" parent="1">
          <mxGeometry x="750" y="414" width="190" height="120" as="geometry" />
        </mxCell>
        <mxCell id="T-EGLuceTleQ6SiZiBLL-39" value="&lt;font style=&quot;font-size: 24px;&quot;&gt;Client&lt;br&gt;&lt;/font&gt;" style="text;html=1;align=center;verticalAlign=middle;whiteSpace=wrap;rounded=0;" vertex="1" parent="1">
          <mxGeometry x="172.5" y="399" width="95" height="30" as="geometry" />
        </mxCell>
        <mxCell id="T-EGLuceTleQ6SiZiBLL-40" value="" style="endArrow=classic;html=1;exitX=1;exitY=0.25;exitDx=0;exitDy=0;entryX=0;entryY=0.25;entryDx=0;entryDy=0;" edge="1" parent="1" source="T-EGLuceTleQ6SiZiBLL-32" target="T-EGLuceTleQ6SiZiBLL-19">
          <mxGeometry width="50" height="50" relative="1" as="geometry">
            <mxPoint x="570" y="500" as="sourcePoint" />
            <mxPoint x="620" y="450" as="targetPoint" />
          </mxGeometry>
        </mxCell>
        <mxCell id="T-EGLuceTleQ6SiZiBLL-42" value="" style="endArrow=classic;startArrow=classic;html=1;exitX=1;exitY=0.75;exitDx=0;exitDy=0;entryX=0.015;entryY=0.58;entryDx=0;entryDy=0;entryPerimeter=0;" edge="1" parent="1" source="T-EGLuceTleQ6SiZiBLL-32" target="T-EGLuceTleQ6SiZiBLL-38">
          <mxGeometry width="50" height="50" relative="1" as="geometry">
            <mxPoint x="570" y="500" as="sourcePoint" />
            <mxPoint x="620" y="450" as="targetPoint" />
          </mxGeometry>
        </mxCell>
        <mxCell id="T-EGLuceTleQ6SiZiBLL-44" value="&lt;div align=&quot;center&quot;&gt;&lt;font style=&quot;font-size: 24px;&quot;&gt;HTTP Request&lt;/font&gt;&lt;br&gt;&lt;/div&gt;" style="text;html=1;align=center;verticalAlign=middle;whiteSpace=wrap;rounded=0;" vertex="1" parent="1">
          <mxGeometry x="400" y="290" width="60" height="30" as="geometry" />
        </mxCell>
        <mxCell id="T-EGLuceTleQ6SiZiBLL-47" value="&lt;font style=&quot;font-size: 24px;&quot;&gt;Websocket Connection&lt;br&gt;&lt;/font&gt;" style="text;html=1;align=center;verticalAlign=middle;whiteSpace=wrap;rounded=0;" vertex="1" parent="1">
          <mxGeometry x="410" y="510" width="60" height="30" as="geometry" />
        </mxCell>
      </root>
    </mxGraphModel>
  </diagram>
</mxfile>
